# Blender 3.3.1
# www.blender.org
mtllib cube3.mtl
o Cube
v 0.999998 0.999922 -0.999975
v 0.999971 -1.000022 -0.999976
v 1.032690 0.980835 0.987056
v 0.999602 -1.000139 1.000273
v -1.000010 0.999975 -0.999987
v -1.000013 -1.000010 -0.999989
v -1.000070 0.999804 1.000101
v -1.000076 -1.000035 1.000055
vn 0.0094 0.9999 0.0095
vn -0.0001 -0.0000 1.0000
vn -1.0000 -0.0000 -0.0000
vn -0.0001 -1.0000 -0.0000
vn 0.9999 -0.0167 0.0002
vn -0.0000 -0.0000 -1.0000
vn -0.0000 1.0000 0.0001
vn 0.0065 0.0066 1.0000
vn -0.0000 -1.0000 -0.0001
vn 0.9999 -0.0000 -0.0165
vt 0.625000 0.500000
vt 0.375000 0.500000
vt 0.625000 0.750000
vt 0.375000 0.750000
vt 0.875000 0.500000
vt 0.625000 0.250000
vt 0.125000 0.500000
vt 0.375000 0.250000
vt 0.875000 0.750000
vt 0.625000 1.000000
vt 0.625000 0.000000
vt 0.375000 1.000000
vt 0.125000 0.750000
vt 0.375000 0.000000
s 0
usemtl Material
f 1/1/1 7/9/1 3/3/1
f 4/4/2 7/10/2 8/12/2
f 8/14/3 5/6/3 6/8/3
f 6/7/4 4/4/4 8/13/4
f 2/2/5 3/3/5 4/4/5
f 6/8/6 1/1/6 2/2/6
f 1/1/7 5/5/7 7/9/7
f 4/4/8 3/3/8 7/10/8
f 8/14/3 7/11/3 5/6/3
f 6/7/9 2/2/9 4/4/9
f 2/2/10 1/1/10 3/3/10
f 6/8/6 5/6/6 1/1/6
